<svg
  xmlns="http://www.w3.org/2000/svg"
  fill="black"
  viewBox="0 0 286 306"
  role="img"
>
  <!-- Weißer Hintergrund -->
  <rect width="286" height="306" fill="white" />
  
  <!-- Schwarze Zeichnung -->
  <path
    d="
    M 66.06 77.48
    C 53.82 87.60 46.31 103.17 43.56 118.83
    Q 42.49 124.91 42.46 138.75
    Q 42.42 156.42 42.47 190.25
    Q 42.48 198.46 45.40 209.16
    Q 51.21 230.49 69.64 243.11
    C 76.56 247.85 81.77 250.30 91.67 255.26
    Q 105.89 262.38 120.45 268.78
    C 136.29 275.74 154.95 277.46 171.33 271.82
    Q 178.18 269.47 187.97 264.47
    Q 206.65 254.95 216.22 249.97
    Q 227.86 243.92 233.74 240.34
    Q 248.10 231.59 261.76 221.89
    A 0.62 0.62 0.0 0 1 262.74 222.47
    C 260.51 241.41 245.93 259.22 230.18 268.41
    Q 217.70 275.70 193.64 287.65
    Q 172.12 298.34 149.03 297.78
    C 131.84 297.36 116.24 292.85 100.90 285.76
    Q 85.86 278.81 73.28 272.52
    Q 62.78 267.27 54.36 260.38
    Q 24.73 236.14 19.93 198.73
    Q 19.17 192.82 19.10 178.77
    Q 19.05 167.39 18.90 140.74
    Q 18.81 126.49 19.73 120.78
    Q 21.59 109.24 26.37 97.62
    C 35.11 76.38 49.79 58.37 69.88 47.13
    Q 77.38 42.93 104.38 29.40
    Q 134.73 14.21 165.01 18.72
    C 178.65 20.75 190.80 25.76 203.86 32.63
    Q 222.07 42.21 230.29 46.93
    Q 253.00 59.94 261.91 84.31
    Q 262.99 87.27 262.99 89.70
    A 0.92 0.91 14.9 0 1 261.62 90.49
    Q 226.89 70.66 190.73 51.78
    Q 181.67 47.05 175.12 44.65
    Q 151.44 36.00 127.15 44.92
    Q 119.20 47.84 110.76 52.00
    Q 93.47 60.53 80.35 67.82
    Q 72.35 72.27 66.06 77.48
    Z"
  />
  <path
    d="
    M 97.52 101.25
    C 89.65 106.57 82.93 115.37 80.23 124.47
    Q 78.74 129.52 78.73 139.62
    Q 78.71 170.58 78.92 184.77
    Q 79.15 200.86 91.46 211.24
    C 99.70 218.18 110.34 223.61 119.73 227.64
    Q 131.77 232.80 142.18 234.15
    Q 159.11 236.34 174.76 228.49
    Q 183.19 224.25 191.86 219.35
    Q 225.21 200.47 262.53 177.39
    Q 263.58 176.75 263.57 177.97
    L 263.47 203.12
    A 2.50 2.48 75.3 0 1 262.23 205.26
    Q 247.46 213.86 218.76 230.99
    Q 199.30 242.62 184.27 249.74
    C 163.02 259.80 141.34 260.11 119.61 252.29
    Q 107.83 248.05 95.57 241.97
    Q 83.01 235.75 74.52 227.81
    Q 55.36 209.88 55.17 181.53
    Q 55.09 169.28 55.15 140.78
    Q 55.18 129.05 56.60 122.81
    Q 63.14 93.97 88.90 79.17
    Q 102.31 71.47 119.22 64.51
    Q 129.94 60.11 138.36 58.80
    Q 157.50 55.83 174.53 61.77
    Q 183.45 64.87 194.32 70.67
    Q 208.42 78.19 250.71 100.54
    Q 256.82 103.77 262.82 107.10
    A 1.02 1.01 -75.5 0 1 263.34 107.99
    L 263.27 133.76
    A 0.40 0.39 -75.1 0 1 262.68 134.11
    Q 225.39 113.51 185.33 92.06
    C 169.51 83.59 153.55 78.75 136.06 83.11
    Q 129.08 84.85 117.36 90.19
    Q 106.64 95.07 97.52 101.25
    Z"
  />
</svg>
